<?xml version="1.0" standalone="no"?>
<!DOCTYPE svg PUBLIC "-//W3C//DTD SVG 20010904//EN"
 "http://www.w3.org/TR/2001/REC-SVG-20010904/DTD/svg10.dtd">
<svg version="1.0" xmlns="http://www.w3.org/2000/svg"
 width="379.000000pt" height="389.000000pt" viewBox="0 0 379.000000 389.000000"
 preserveAspectRatio="xMidYMid meet">

<g transform="translate(0.000000,389.000000) scale(0.100000,-0.100000)"
fill="#000000" stroke="none">
<path d="M1420 3740 c0 -5 5 -10 10 -10 6 0 10 5 10 10 0 6 -4 10 -10 10 -5 0
-10 -4 -10 -10z"/>
<path d="M1420 3711 c0 -5 5 -13 10 -16 6 -3 10 -2 10 4 0 5 -4 13 -10 16 -5
3 -10 2 -10 -4z"/>
<path d="M13 3073 c-7 -2 -13 -18 -13 -35 0 -30 0 -31 20 -13 11 10 20 26 20
37 0 18 -5 20 -27 11z"/>
<path d="M1721 2850 c-50 -11 -250 -83 -296 -107 -16 -9 -52 -28 -79 -42 -26
-14 -85 -62 -130 -106 -65 -65 -91 -99 -133 -180 -28 -55 -61 -136 -73 -180
-12 -44 -23 -85 -25 -92 -3 -8 -16 -8 -51 3 -69 21 -127 17 -195 -12 -56 -23
-63 -24 -78 -10 -25 23 -50 20 -61 -8 -5 -13 -5 -68 -1 -127 9 -108 26 -164
76 -236 18 -28 25 -51 25 -88 1 -51 12 -78 78 -189 35 -58 146 -176 166 -176
7 0 24 -10 38 -21 15 -12 78 -44 139 -70 110 -47 115 -50 213 -152 103 -106
151 -138 259 -169 23 -6 47 -15 53 -20 6 -4 40 -18 75 -30 55 -19 86 -22 219
-23 130 0 166 4 225 21 114 34 222 83 283 128 149 111 272 276 272 367 0 16 9
62 20 102 19 66 20 91 14 292 -8 313 -31 448 -99 585 -90 181 -107 208 -178
278 -136 134 -249 197 -456 252 -58 15 -245 22 -300 10z m304 -67 c207 -39
401 -162 500 -318 37 -57 131 -250 146 -300 14 -42 39 -267 39 -346 0 -69 -23
-252 -39 -305 -19 -66 -92 -185 -189 -306 -43 -55 -148 -136 -230 -177 -59
-29 -167 -59 -178 -48 -3 3 4 36 16 73 17 51 21 77 15 113 -4 25 -7 63 -6 85
2 52 -26 146 -43 146 -20 0 -25 -19 -14 -55 29 -104 -18 -276 -90 -330 -39
-29 -158 -27 -228 4 -64 28 -167 131 -208 208 -30 56 -66 82 -66 49 0 -18 54
-119 79 -150 13 -16 13 -18 1 -11 -81 46 -258 204 -315 280 -57 78 -135 224
-154 290 -61 208 -71 324 -41 475 34 167 98 286 216 402 117 113 222 172 384
212 146 36 252 38 405 9z m-1353 -709 c20 -47 27 -51 47 -31 10 10 18 5 42
-23 17 -19 38 -50 49 -67 l19 -33 -32 0 c-46 1 -137 41 -159 71 -25 33 -35
104 -18 124 17 20 29 11 52 -41z m273 32 l29 -12 -2 -120 c-2 -98 1 -131 18
-189 12 -38 29 -97 39 -130 17 -58 80 -187 119 -242 35 -52 33 -53 -30 -19
-141 74 -205 122 -297 220 -95 102 -141 175 -174 279 -20 64 -17 79 11 54 35
-32 106 -57 165 -57 60 0 74 14 40 41 -9 8 -31 37 -49 64 -39 62 -57 78 -89
78 -36 0 -21 15 33 31 58 18 147 19 187 2z m1774 -593 c-4 -32 -8 -66 -8 -76
-1 -27 -21 -10 -21 18 0 31 22 115 30 115 3 0 3 -26 -1 -57z m-1234 -418 c41
-30 91 -55 110 -55 9 0 31 -10 48 -23 43 -31 159 -70 216 -72 25 -1 53 -5 61
-8 8 -3 26 -8 40 -11 14 -3 -33 -3 -105 -2 -100 3 -146 9 -200 26 -111 35
-150 61 -203 137 -36 51 -29 53 33 8z m595 -235 c-8 -5 -19 -10 -25 -10 -5 0
-3 5 5 10 8 5 20 10 25 10 6 0 3 -5 -5 -10z"/>
<path d="M1675 2707 c-111 -61 -174 -148 -175 -239 0 -43 4 -52 53 -103 40
-42 66 -60 112 -77 75 -26 171 -28 243 -4 141 47 177 158 97 291 -45 76 -61
92 -120 126 -65 37 -149 40 -210 6z m181 -26 c75 -34 141 -122 158 -210 8 -46
-23 -108 -71 -141 -31 -21 -50 -26 -131 -28 -117 -5 -161 10 -231 79 -42 41
-51 56 -51 85 0 48 20 91 66 142 78 85 174 112 260 73z"/>
<path d="M2316 2280 c-49 -25 -83 -56 -102 -93 -14 -27 -16 -27 -78 -21 -82 8
-129 -7 -184 -60 -76 -72 -110 -185 -97 -320 8 -89 33 -137 107 -209 81 -79
142 -107 236 -107 109 0 166 32 231 130 15 23 42 44 76 59 69 31 119 78 136
127 33 96 -1 307 -65 403 -66 98 -174 136 -260 91z m159 -35 c23 -13 54 -40
69 -60 41 -53 79 -193 80 -290 1 -70 -3 -86 -26 -127 -33 -55 -95 -86 -139
-69 -25 9 -26 12 -19 58 5 26 6 62 3 78 -8 52 -45 138 -80 188 -33 47 -34 50
-17 68 10 11 41 26 71 35 56 16 65 31 36 59 -11 12 -25 15 -46 11 -16 -3 -36
-6 -43 -6 -8 0 -32 -16 -53 -36 -34 -30 -43 -34 -60 -24 -29 15 -26 41 7 72
76 72 145 86 217 43z m-46 -74 c10 -7 5 -11 -17 -16 -17 -3 -47 -17 -67 -30
-42 -29 -46 -19 -7 17 23 22 38 30 72 37 3 0 11 -3 19 -8z m-205 -60 c64 -28
110 -74 145 -144 44 -91 53 -148 36 -231 -15 -73 -38 -116 -82 -158 -39 -37
-73 -48 -154 -48 -115 0 -184 40 -246 143 -37 61 -38 64 -38 162 0 88 4 107
29 162 31 68 58 98 113 124 46 23 134 18 197 -10z"/>
<path d="M2089 2050 c-55 -16 -135 -79 -150 -117 -21 -56 21 -70 67 -22 33 35
94 69 139 79 33 6 44 32 25 55 -13 16 -40 18 -81 5z m56 -30 c-3 -5 -14 -10
-23 -10 -25 0 -118 -56 -136 -82 -9 -12 -18 -19 -21 -16 -11 11 48 69 94 93
47 24 97 33 86 15z"/>
<path d="M2412 1553 c-20 -8 -44 -62 -37 -84 4 -10 15 -24 26 -29 15 -9 24 -6
45 15 20 20 25 33 22 63 -3 37 -22 49 -56 35z m38 -27 c0 -16 -21 -56 -30 -56
-14 0 -13 33 2 48 12 12 28 16 28 8z"/>
<path d="M501 2804 c0 -11 3 -14 6 -6 3 7 2 16 -1 19 -3 4 -6 -2 -5 -13z"/>
<path d="M3513 2708 c-111 -45 -122 -52 -112 -69 15 -30 88 -25 164 10 35 16
68 39 74 50 13 23 15 61 4 60 -5 -1 -63 -24 -130 -51z"/>
<path d="M3348 2559 c-16 -11 -28 -24 -28 -28 0 -13 132 -4 141 11 15 23 4 33
-42 35 -32 2 -52 -3 -71 -18z"/>
<path d="M1161 1074 c0 -11 3 -14 6 -6 3 7 2 16 -1 19 -3 4 -6 -2 -5 -13z"/>
<path d="M1211 1024 c0 -11 3 -14 6 -6 3 7 2 16 -1 19 -3 4 -6 -2 -5 -13z"/>
<path d="M1256 961 c-19 -7 -19 -8 2 -13 15 -4 22 -2 22 8 0 8 -1 14 -2 13 -2
0 -12 -4 -22 -8z"/>
<path d="M1341 944 c0 -11 3 -14 6 -6 3 7 2 16 -1 19 -3 4 -6 -2 -5 -13z"/>
<path d="M3426 677 c3 -10 9 -15 12 -12 3 3 0 11 -7 18 -10 9 -11 8 -5 -6z"/>
<path d="M3220 266 c0 -16 -132 -91 -216 -125 -28 -11 -71 -29 -95 -40 -24
-11 -95 -36 -156 -56 -62 -21 -113 -39 -113 -41 0 -9 900 -3 905 6 10 16 -26
24 -37 9 -7 -10 -8 -8 -3 8 4 14 2 23 -4 23 -6 0 -11 6 -11 14 0 8 -28 42 -63
75 -72 71 -102 93 -111 84 -3 -3 -6 -1 -6 5 0 14 -58 52 -77 52 -7 0 -13 -7
-13 -14z"/>
<path d="M2644 235 c-8 -13 -14 -32 -12 -42 2 -13 9 -9 26 20 25 43 26 47 12
47 -5 0 -17 -11 -26 -25z"/>
<path d="M2609 153 c-13 -16 -12 -17 4 -4 9 7 17 15 17 17 0 8 -8 3 -21 -13z"/>
<path d="M2145 103 c-11 -3 -63 -23 -115 -45 -67 -29 -110 -41 -147 -42 -28 0
-49 -4 -47 -8 3 -4 49 -8 103 -8 104 0 154 13 192 51 11 11 24 17 30 13 12 -7
40 26 33 38 -5 9 -17 9 -49 1z"/>
<path d="M2520 45 c-24 -25 -42 -45 -39 -45 3 0 25 20 49 45 24 25 42 45 39
45 -3 0 -25 -20 -49 -45z"/>
</g>
</svg>
